<svg width="20" height="26" viewBox="0 0 20 26" fill="none" xmlns="http://www.w3.org/2000/svg">
<path d="M11.0826 16.09C11.0826 18.9635 11.0826 21.8369 11.0826 24.7102C11.0825 24.8369 11.0748 24.9635 11.0595 25.0893C10.9844 25.6944 10.4101 26.0639 9.86451 25.9908C9.42575 25.9322 9.06573 25.5953 8.97419 25.202C8.95593 25.1317 8.94557 25.0595 8.94331 24.9868C8.94016 24.5826 8.94016 24.1785 8.94331 23.7743C8.94721 22.9816 8.95806 22.1889 8.9575 21.3962C8.95416 16.6823 8.9499 11.9686 8.9447 7.25493C8.9447 6.9772 8.74995 6.66542 8.39187 6.62159C8.07442 6.58252 7.78285 6.78907 7.70439 7.13434C7.6981 7.17627 7.69642 7.21877 7.69938 7.26107C7.69938 11.5518 7.69938 15.8424 7.69938 20.1331C7.70352 20.2945 7.68047 20.4554 7.63121 20.609C7.45816 21.1081 6.98435 21.3219 6.61737 21.3211C6.14439 21.3197 5.7023 20.9889 5.59017 20.5231C5.57438 20.4406 5.56352 20.3573 5.55762 20.2735C5.55651 20.2543 5.55651 20.235 5.55762 20.2158C5.56263 17.9364 5.56736 15.6569 5.57181 13.3772C5.57181 13.0774 5.47221 12.8075 5.29637 12.5655C5.19885 12.429 5.07485 12.3137 4.9318 12.2264C4.78876 12.1392 4.62962 12.0818 4.46393 12.0578C4.07247 11.9964 3.71273 12.1069 3.4103 12.3746C3.18759 12.5674 3.0381 12.8315 2.98712 13.1221C2.94375 13.3625 2.97181 13.6104 3.06781 13.835C3.22167 14.1978 3.16741 14.5442 2.94316 14.8569C2.86116 14.9723 2.75681 15.0699 2.63635 15.1439C2.51588 15.2179 2.38178 15.2668 2.24205 15.2877C2.10232 15.3085 1.95984 15.3009 1.82312 15.2652C1.6864 15.2296 1.55825 15.1666 1.44633 15.0802C1.27466 14.9518 1.1439 14.7915 1.07685 14.5811C1.04903 14.4909 0.99672 14.408 0.954987 14.3221C0.744067 13.8876 0.568313 13.4369 0.429425 12.9742C0.269156 12.4544 0.155651 11.9213 0.0902712 11.3812C0.0588321 11.1077 0.0329574 10.8327 0.019881 10.5578C0.00485696 10.2471 -0.00794128 9.93479 0.00596985 9.62441C0.0204374 9.2808 0.0554934 8.9372 0.0980614 8.59583C0.15179 8.16265 0.241599 7.73475 0.366546 7.31661C0.47088 6.96854 0.582169 6.62132 0.71349 6.28385C0.824779 5.9958 0.96862 5.7203 1.09966 5.44034C1.27661 5.06213 1.4953 4.70792 1.729 4.36348C2.14529 3.74852 2.63022 3.18326 3.17437 2.67869C3.50632 2.36981 3.8584 2.08345 4.22827 1.82151C4.49217 1.63244 4.76576 1.45737 5.04792 1.29703C5.31112 1.14965 5.58433 1.02042 5.85476 0.888116C6.23827 0.706513 6.63495 0.554327 7.04138 0.432866C7.43229 0.313193 7.83003 0.217279 8.23245 0.145647C8.58997 0.0803325 8.9511 0.047675 9.31168 0.0105515C9.39945 0.00249666 9.48758 -0.000950647 9.57571 0.000223891C9.93239 0.00189863 10.2894 0.000223982 10.6458 0.0111098C10.8327 0.0164132 11.0194 0.0373473 11.205 0.0605146C12.1102 0.170882 12.9965 0.403352 13.8397 0.751625C14.1437 0.875174 14.4409 1.01493 14.7301 1.17031C15.0913 1.36837 15.4414 1.58633 15.7787 1.82318C16.1963 2.11927 16.5913 2.44629 16.9603 2.80151C17.281 3.1079 17.5796 3.4367 17.8539 3.78542C18.2326 4.26495 18.5666 4.77827 18.8519 5.31892C19.0586 5.71209 19.2385 6.11887 19.3903 6.53646C19.5607 7.0042 19.6968 7.4838 19.7976 7.97144C19.8688 8.31252 19.9164 8.65668 19.954 9.00419C20.0116 9.53313 20.0052 10.0626 19.9879 10.5924C19.9715 10.9711 19.9301 11.3483 19.8641 11.7215C19.7923 12.1438 19.6955 12.5614 19.5742 12.9722C19.4562 13.3646 19.3141 13.7493 19.1488 14.1242C19.082 14.2794 19.0152 14.4351 18.9604 14.5948C18.8071 15.0414 18.3344 15.3227 17.9032 15.2968C17.4024 15.2666 17.0031 14.9236 16.9124 14.4371C16.8748 14.2318 16.8908 14.0202 16.9589 13.823C17.0065 13.6834 17.0541 13.5349 17.0582 13.3889C17.0669 13.09 16.9692 12.8165 16.7925 12.5728C16.6943 12.4343 16.5692 12.3173 16.4246 12.2288C16.28 12.1403 16.1191 12.0821 15.9515 12.0578C15.56 11.9975 15.2003 12.1067 14.8992 12.378C14.7006 12.5503 14.5617 12.7816 14.5028 13.0384C14.4847 13.121 14.4736 13.2051 14.4696 13.2896C14.4624 13.4238 14.4607 13.5587 14.4607 13.6932C14.4607 15.4113 14.4607 17.1291 14.4607 18.8467C14.4607 19.2394 14.4674 19.6321 14.4669 20.0248C14.4666 20.1529 14.459 20.2809 14.444 20.4081C14.3764 20.9725 13.8704 21.3208 13.3988 21.3219C12.9088 21.3219 12.4703 20.9853 12.3593 20.5259C12.3383 20.4404 12.3275 20.3528 12.3271 20.2649C12.3254 15.9318 12.3254 11.5987 12.3271 7.26581C12.3271 7.02688 12.2286 6.84098 12.0307 6.71538C11.6615 6.48092 11.235 6.69528 11.119 7.03861C11.0967 7.10691 11.0854 7.17832 11.0853 7.25018C11.0828 10.197 11.0818 13.1436 11.0826 16.09Z" fill="#F5F5F7"/>
</svg>
