<svg width="50" height="50" viewBox="0 0 50 50" fill="none" xmlns="http://www.w3.org/2000/svg">
<path d="M46.4284 16.8504V14.9161C46.4284 10.7442 44.1528 8.5065 39.943 8.5065H10.0378C5.82793 8.5065 3.57129 10.7442 3.57129 14.9161V16.8504H46.4284ZM39.943 41.6165C44.1528 41.6165 46.4284 39.3599 46.4284 35.1879V21.4016H3.57129V35.1879C3.57129 39.3788 5.82793 41.6165 10.0378 41.6165H39.943ZM16.637 32.6089H11.991C10.8722 32.6089 10.1326 31.8693 10.1326 30.8074V27.2802C10.1326 26.2183 10.8722 25.4787 11.991 25.4787H16.637C17.7559 25.4787 18.4954 26.2183 18.4954 27.2802V30.8074C18.4954 31.8693 17.7559 32.6089 16.637 32.6089Z" fill="#0063F9"/>
</svg>
