<svg width="51" height="52" viewBox="0 0 51 52" fill="none" xmlns="http://www.w3.org/2000/svg">
<path d="M16.3212 40.5594L28.0823 27.2063L23.8991 23.0102L10.4561 34.6848C9.07691 35.8996 9.0019 37.1755 10.2738 38.4556L12.5351 40.7173C13.7929 41.9832 15.0975 41.9166 16.3212 40.5594Z" fill="#E94F3D"/>
<path fill-rule="evenodd" clip-rule="evenodd" d="M22.8922 26.0845L33.5747 15.4708L35.6213 17.5307L24.9388 28.1444L22.8922 26.0845Z" fill="#C7C7CC"/>
<path d="M28.1756 27.2025L23.6276 22.6251C22.874 21.8667 21.6484 21.8627 20.8899 22.6162C20.1315 23.3698 20.1276 24.5955 20.8811 25.3539L25.4291 29.9314C26.1827 30.6898 27.4083 30.6937 28.1668 29.9402C28.9252 29.1867 28.9291 27.961 28.1756 27.2025Z" fill="#E94F3D"/>
<path fill-rule="evenodd" clip-rule="evenodd" d="M40.0093 9.58766L41.5459 11.1342C41.6972 11.2866 41.73 11.5205 41.6265 11.7087C40.0861 14.5072 39.0248 16.1957 38.4427 16.7741C37.8389 17.374 36.784 17.7399 35.278 17.8718L33.2314 15.8119C33.373 14.3068 33.7457 13.2543 34.3495 12.6543C34.9316 12.076 36.6269 11.0256 39.4353 9.50332C39.6242 9.40092 39.8579 9.43528 40.0093 9.58766Z" fill="#C7C7CC"/>
</svg>
