<svg width="17" height="20" viewBox="0 0 17 20" fill="none" xmlns="http://www.w3.org/2000/svg">
<path d="M9.33267 12.3769C9.33267 14.5873 9.33267 16.7976 9.33267 19.0078C9.33263 19.1053 9.32669 19.2027 9.3149 19.2994C9.25712 19.7649 8.81539 20.0492 8.3957 19.9929C8.05819 19.9478 7.78125 19.6887 7.71084 19.3862C7.69679 19.332 7.68883 19.2765 7.68709 19.2206C7.68466 18.9097 7.68466 18.5988 7.68709 18.2879C7.69008 17.6781 7.69843 17.0684 7.698 16.4586C7.69543 12.8326 7.69215 9.2066 7.68816 5.58071C7.68816 5.36708 7.53834 5.12724 7.2629 5.09353C7.01871 5.06347 6.79442 5.22236 6.73407 5.48796C6.72923 5.52021 6.72794 5.5529 6.73022 5.58544C6.73022 8.88597 6.73022 12.1865 6.73022 15.487C6.7334 15.6111 6.71567 15.7349 6.67778 15.8531C6.54466 16.237 6.18019 16.4015 5.8979 16.4008C5.53407 16.3998 5.194 16.1453 5.10775 15.787C5.0956 15.7235 5.08724 15.6595 5.08271 15.595C5.08185 15.5802 5.08185 15.5654 5.08271 15.5506C5.08656 13.7973 5.0902 12.0438 5.09363 10.2902C5.09363 10.0596 5.01701 9.85195 4.88175 9.66579C4.80673 9.56078 4.71135 9.47206 4.60131 9.40495C4.49128 9.33783 4.36886 9.29371 4.24141 9.27524C3.94029 9.228 3.66356 9.31302 3.43093 9.51893C3.25961 9.66723 3.14462 9.87035 3.1054 10.0939C3.07204 10.2789 3.09363 10.4696 3.16747 10.6423C3.28582 10.9214 3.24409 11.1879 3.07159 11.4284C3.00851 11.5171 2.92824 11.5922 2.83558 11.6492C2.74291 11.7061 2.63975 11.7437 2.53227 11.7597C2.42479 11.7758 2.31519 11.7699 2.21002 11.7425C2.10485 11.7151 2.00627 11.6666 1.92018 11.6001C1.78813 11.5014 1.68754 11.3781 1.63596 11.2162C1.61456 11.1469 1.57432 11.0831 1.54222 11.017C1.37998 10.6828 1.24478 10.3361 1.13794 9.98013C1.01466 9.58032 0.927349 9.17023 0.877057 8.75478C0.852873 8.54436 0.832969 8.33287 0.82291 8.12138C0.811353 7.88241 0.801509 7.64215 0.812209 7.40339C0.823338 7.13908 0.850304 6.87477 0.883049 6.61218C0.924379 6.27896 0.993463 5.94981 1.08958 5.62816C1.16983 5.36042 1.25544 5.09332 1.35646 4.83373C1.44206 4.61215 1.55271 4.40023 1.65351 4.18488C1.78963 3.89395 1.95784 3.62148 2.13762 3.35653C2.45784 2.88348 2.83086 2.44866 3.24944 2.06053C3.50478 1.82293 3.77561 1.60265 4.06014 1.40116C4.26313 1.25572 4.47359 1.12106 4.69063 0.997717C4.89309 0.88435 5.10326 0.784939 5.31128 0.683166C5.60629 0.543472 5.91142 0.426406 6.22406 0.332973C6.52476 0.240917 6.83072 0.167138 7.14027 0.112036C7.41528 0.0617942 7.69308 0.0366731 7.97045 0.00811657C8.03796 0.0019205 8.10576 -0.000731267 8.17355 0.000172224C8.44792 0.00146049 8.7225 0.000172294 8.99666 0.008546C9.14048 0.0126255 9.28408 0.0287287 9.42683 0.0465497C10.1232 0.131448 10.8049 0.310271 11.4536 0.578173C11.6874 0.673211 11.916 0.780719 12.1384 0.900239C12.4163 1.05259 12.6856 1.22025 12.9451 1.40245C13.2663 1.63021 13.5701 1.88177 13.854 2.15501C14.1007 2.3907 14.3304 2.64361 14.5414 2.91186C14.8327 3.28073 15.0896 3.67559 15.3091 4.09148C15.4681 4.39392 15.6064 4.70682 15.7232 5.02805C15.8543 5.38785 15.959 5.75677 16.0365 6.13187C16.0913 6.39425 16.1279 6.65899 16.1568 6.9263C16.2011 7.33318 16.1962 7.74048 16.1829 8.14801C16.1703 8.4393 16.1385 8.72943 16.0877 9.01651C16.0324 9.34137 15.958 9.66264 15.8647 9.97863C15.7739 10.2805 15.6646 10.5764 15.5375 10.8647C15.4861 10.9841 15.4347 11.1039 15.3926 11.2267C15.2746 11.5703 14.911 11.7867 14.5793 11.7667C14.1941 11.7435 13.887 11.4797 13.8172 11.1054C13.7883 10.9475 13.8006 10.7848 13.8529 10.6331C13.8895 10.5257 13.9261 10.4115 13.9293 10.2992C13.936 10.0692 13.8608 9.85882 13.7249 9.67138C13.6494 9.56488 13.5531 9.47486 13.4419 9.40677C13.3307 9.33868 13.2069 9.29393 13.078 9.27524C12.7768 9.22886 12.5001 9.31281 12.2686 9.52151C12.1158 9.65411 12.009 9.83201 11.9636 10.0295C11.9497 10.0931 11.9412 10.1577 11.9381 10.2228C11.9325 10.326 11.9313 10.4297 11.9313 10.5332C11.9313 11.8548 11.9313 13.1762 11.9313 14.4974C11.9313 14.7995 11.9364 15.1016 11.936 15.4037C11.9358 15.5022 11.9299 15.6007 11.9184 15.6985C11.8664 16.1327 11.4771 16.4006 11.1144 16.4015C10.7375 16.4015 10.4002 16.1425 10.3148 15.7891C10.2986 15.7234 10.2903 15.656 10.29 15.5884C10.2887 12.2552 10.2887 8.92211 10.29 5.58909C10.29 5.40529 10.2142 5.2623 10.062 5.16568C9.77804 4.98532 9.44995 5.15022 9.3607 5.41431C9.34357 5.46685 9.33483 5.52178 9.33481 5.57706C9.33281 7.84383 9.3321 10.1105 9.33267 12.3769Z" fill="#F5F5F7"/>
</svg>
