<svg width="50" height="50" viewBox="0 0 50 50" fill="none" xmlns="http://www.w3.org/2000/svg">
<path fill-rule="evenodd" clip-rule="evenodd" d="M24.9999 3.57144C36.8345 3.57144 46.4284 13.1653 46.4284 25C46.4284 36.8347 36.8345 46.4286 24.9999 46.4286C13.1652 46.4286 3.57129 36.8347 3.57129 25C3.57129 13.1653 13.1652 3.57144 24.9999 3.57144ZM14.3053 21.7227C12.5327 21.7227 11.1343 23.1211 11.1343 24.8937C11.1343 26.6465 12.5327 28.0646 14.3053 28.0646C16.0779 28.0646 17.4762 26.6465 17.4762 24.8937C17.4762 23.1211 16.0779 21.7227 14.3053 21.7227ZM25.118 21.7227C23.3454 21.7227 21.9471 23.1211 21.9471 24.8937C21.9471 26.6465 23.3454 28.0646 25.118 28.0646C26.8906 28.0646 28.289 26.6465 28.289 24.8937C28.289 23.1211 26.8906 21.7227 25.118 21.7227ZM35.8914 21.7227C34.1188 21.7227 32.7204 23.1211 32.7204 24.8937C32.7204 26.6465 34.1188 28.0646 35.8914 28.0646C37.664 28.0646 39.0624 26.6465 39.0624 24.8937C39.0624 23.1211 37.664 21.7227 35.8914 21.7227Z" fill="#C7C7CC"/>
</svg>
