<svg width="20" height="20" viewBox="0 0 20 20" fill="none" xmlns="http://www.w3.org/2000/svg">
<g clip-path="url(#clip0_99_44)">
<path d="M9.07232 2.80558C10.2757 2.80448 11.4524 3.16032 12.4536 3.8281C13.4547 4.49588 14.2353 5.44558 14.6965 6.55707C15.1578 7.66855 15.2791 8.89188 15.045 10.0723C14.8109 11.2527 14.232 12.3372 13.3814 13.1885C12.5309 14.0398 11.4469 14.6198 10.2667 14.8549C9.08652 15.0901 7.86308 14.97 6.75117 14.5097C5.63927 14.0494 4.68885 13.2697 4.02016 12.2692C3.35147 11.2687 2.99455 10.0923 2.99455 8.88891C3.00184 7.27872 3.64434 5.73647 4.78241 4.59736C5.92048 3.45825 7.46214 2.81434 9.07232 2.80558ZM9.07232 1.66669C7.6439 1.66669 6.24756 2.09026 5.05987 2.88385C3.87218 3.67744 2.94649 4.8054 2.39986 6.12508C1.85323 7.44477 1.7102 8.89692 1.98887 10.2979C2.26754 11.6989 2.95539 12.9857 3.96544 13.9958C4.97549 15.0058 6.26236 15.6937 7.66334 15.9724C9.06431 16.251 10.5165 16.108 11.8361 15.5614C13.1558 15.0147 14.2838 14.089 15.0774 12.9014C15.871 11.7137 16.2945 10.3173 16.2945 8.88891C16.2945 6.97346 15.5336 5.13646 14.1792 3.78203C12.8248 2.4276 10.9878 1.66669 9.07232 1.66669Z" fill="#F9FAFB"/>
<path d="M19.4444 18.4944L15.3499 14.3722L14.561 15.1555L18.6555 19.2777C18.7069 19.3295 18.768 19.3707 18.8354 19.3989C18.9027 19.4271 18.975 19.4417 19.048 19.4419C19.121 19.4422 19.1933 19.4281 19.2608 19.4004C19.3284 19.3727 19.3898 19.332 19.4416 19.2805C19.4934 19.2291 19.5346 19.168 19.5627 19.1006C19.5909 19.0333 19.6055 18.961 19.6058 18.888C19.606 18.815 19.5919 18.7427 19.5642 18.6752C19.5365 18.6076 19.4958 18.5462 19.4444 18.4944Z" fill="#F9FAFB"/>
</g>
<defs>
<clipPath id="clip0_99_44">
<rect width="20" height="20" fill="white"/>
</clipPath>
</defs>
</svg>
