<svg width="16" height="16" viewBox="0 0 16 16" fill="none" xmlns="http://www.w3.org/2000/svg">
<path d="M15.2382 5.56332C14.6644 4.205 13.7028 3.04606 12.4737 2.23159C11.2445 1.41711 9.80241 0.983271 8.32789 0.984377C6.85351 0.983889 5.41169 1.41797 4.18265 2.23238C2.9536 3.04678 1.99186 4.20537 1.41763 5.56332C0.834794 6.93713 0.676339 8.4539 0.962647 9.91851C1.24896 11.3831 1.96693 12.7286 3.02421 13.7817C3.70715 14.468 4.51616 15.0159 5.40684 15.3954C6.33078 15.7843 7.3231 15.9846 8.32552 15.9846C9.32795 15.9846 10.3203 15.7843 11.2442 15.3954C12.1359 15.0165 12.9461 14.4688 13.63 13.7825C14.6851 12.7278 15.4017 11.3824 15.6882 9.91831C15.9747 8.4542 15.818 6.93792 15.2382 5.56332V5.56332ZM11.2158 10.6096L10.4524 11.3731L8.28842 9.21543L6.12368 11.3731L5.36026 10.6096L7.525 8.4449L5.36026 6.28727L6.12368 5.51675L8.28842 7.68148L10.4532 5.51675L11.2166 6.28727L9.05184 8.4449L11.2158 10.6096Z" fill="#B8B8B8"/>
</svg>
